<svg xmlns="http://www.w3.org/2000/svg" viewBox="0 0 907.37 1061.9"><defs><style>.cls-1{fill:#efd0c5;}.cls-2{fill:#f05e24;}.cls-3{fill:#5e3966;}.cls-4{fill:#a166aa;}.cls-5{fill:#00ab7e;}.cls-6{fill:#efefef;}.cls-7{fill:#007455;}.cls-8{fill:#003a29;}.cls-9{fill:#00684a;}</style></defs><title>glasuj</title><g id="Layer_2" data-name="Layer 2"><g id="Layer_1-2" data-name="Layer 1"><polygon class="cls-1" points="720.14 936.31 717.83 970.61 733.57 969.59 745 937.24 720.14 936.31"/><polygon class="cls-1" points="814.65 918.87 814.06 953.24 829.73 951.43 839.53 918.55 814.65 918.87"/><path class="cls-1" d="M722.52,300.39a45.26,45.26,0,0,0-14.37,30c-1.35,19.23.63,37.18,14.5,44.41s20.62,6.92,22.06,13.62.75,15.75.75,15.75l-.76,7.93L792,409.86s-1.92-16.83,0-24.81,21.66-42.74,21.5-46.11,19-50.51-24.4-63.11S722.52,300.39,722.52,300.39Z"/><path class="cls-1" d="M709.33,331.45l-6.57.31s-3.93.19-3.75,4.12,4.13,3.76,4.13,3.76l6.56-.31Z"/><path class="cls-2" d="M816,333.11l-73.64-54.18a38.61,38.61,0,0,1,7.89-6.27c9.44-5.82,26.7-11.59,48.32,2.95C831.86,298,816,333.11,816,333.11Z"/><path class="cls-2" d="M762.15,293.15l-39.62-29.08s-7.36-3.95-2-7.38,24.79,7.62,24.79,7.62L784,287.18Z"/><path class="cls-3" d="M776.62,304s-41.1,18.25-59.74-.29-7.75-30.17-7.75-30.17.52,15.76,9.53,15.46,11-9.37,11-9.37-2.51-7.81,11.14-3.75S776.62,304,776.62,304Z"/><path class="cls-3" d="M786.83,311.63s1.14,13.85-8.72,20-16-3.76-16-3.76-1.83,9.11,2.83,12.27,13.77,5,18-.85,2.14-2.36,5.25-8.14c2.09-3.48,3.11-5.79,7.77-2.62,5.79,3.11,4.71,4.28,3.7,6.59s-6.33,9.32-7.29,12.74c-2,5.73-9,25.23,4.75,29.09s19-3.15,19-3.15-11.2,1.66-11.68-8.47,20.26-24.63,12-32.13S786.83,311.63,786.83,311.63Z"/><circle cx="728.83" cy="326.58" r="2.82"/><rect class="cls-1" x="859.4" y="202.62" width="10.14" height="47.12" rx="4.5" ry="4.5" transform="translate(13.71 -47.08) rotate(3.14)"/><rect class="cls-1" x="849.68" y="197.54" width="10.14" height="47.12" rx="4.5" ry="4.5" transform="translate(13.42 -46.56) rotate(3.14)"/><rect class="cls-1" x="839.56" y="196.98" width="10.14" height="47.12" rx="4.5" ry="4.5" transform="translate(13.37 -46) rotate(3.14)"/><rect class="cls-1" x="829.44" y="196.43" width="10.14" height="47.12" rx="4.5" ry="4.5" transform="translate(13.32 -45.45) rotate(3.14)"/><path class="cls-1" d="M824.16,239.89c2.43,5.7,25.13,15.64,25.13,15.64l19.63-15.07-1.47-12.32S821.74,234.19,824.16,239.89Z"/><path class="cls-4" d="M778,425.76l35.78,44.14s89-82.39,91.68-86.45,2.7-11.95-1-26.85c-5.29-26.77-33.83-113.81-33.83-113.81l-28.4,6.31,27.58,99s2.33,7.59-.07,12.82C864.24,367,778,425.76,778,425.76Z"/><path class="cls-5" d="M751,634.38s42.61,87,48.64,122.08,8.71,182.27,8.71,182.27l35.91-.24s4.27-139.71,2.55-199-21.75-158.29-21.75-158.29l-99.7,15.71Z"/><path class="cls-5" d="M688.6,605.35c-3.43,65.73,26.87,113.41,30.3,171.79s-5.41,173.73-5.41,173.73l35.56,5s20.73-128.36,20.66-199.83-14.33-150.67-14.33-150.67S692,539.62,688.6,605.35Z"/><polygon class="cls-2" points="713.34 970.9 711.73 998.1 771.87 1003.2 772.56 996.39 735.64 984.12 738.06 969.29 713.34 970.9"/><polygon class="cls-2" points="809.59 953.76 809.34 981 869.66 983.1 870.01 976.25 832.53 965.85 834.2 950.91 809.59 953.76"/><path class="cls-4" d="M760,406.44l-28.68-1.35s-29.37-1.45-31,18-14.83,191.56-14.83,191.56l151.72,2.15L832.4,438s-12.17-28.76-25.67-29.4Z"/><rect class="cls-1" x="649.1" y="175.59" width="10.14" height="47.12" rx="4.5" ry="4.5" transform="translate(1318.27 362.12) rotate(176.86)"/><rect class="cls-1" x="658.82" y="170.51" width="10.14" height="47.12" rx="4.5" ry="4.5" transform="translate(1337.42 351.43) rotate(176.86)"/><rect class="cls-1" x="668.94" y="169.95" width="10.14" height="47.12" rx="4.5" ry="4.5" transform="translate(1357.61 349.76) rotate(176.86)"/><rect class="cls-1" x="679.06" y="169.4" width="10.14" height="47.12" rx="4.5" ry="4.5" transform="translate(1377.81 348.1) rotate(176.86)"/><path class="cls-1" d="M694.47,212.86c-2.42,5.7-25.12,15.64-25.12,15.64l-19.64-15.07,1.48-12.32S696.89,207.16,694.47,212.86Z"/><path class="cls-4" d="M729.43,408.87l-22.27,54.27s-81.41-103.78-81.55-116.85,3.28-26.85,3.28-26.85l21.45-104.81,31.77,4.07S665.55,306.77,668,297.47s-6.84,28.19-4.43,39.85S729.43,408.87,729.43,408.87Z"/><polygon class="cls-6" points="891.34 224.94 629.43 179.7 637.79 0 889.57 17.09 891.34 224.94"/><rect class="cls-1" x="692.42" y="174.94" width="10.14" height="41.37" rx="4.5" ry="4.5" transform="translate(1235.22 681.02) rotate(-153.6)"/><rect class="cls-1" x="816.08" y="201.97" width="10.14" height="41.37" rx="4.5" ry="4.5" transform="translate(-13.36 388.38) rotate(-26.4)"/><polygon class="cls-1" points="91.88 949.23 93.11 983.58 108.65 980.95 116.7 947.6 91.88 949.23"/><polygon class="cls-7" points="90.45 978.42 86.67 1005.1 137.14 1026.27 139.76 1019.95 107.98 997.52 114.58 979.52 90.45 978.42"/><polygon class="cls-1" points="169.99 938.61 170.49 972.99 186.09 970.68 194.84 937.51 169.99 938.61"/><polygon class="cls-7" points="166.49 966.83 165.12 995.08 215.5 1012.31 217.81 1005.86 184.95 985.04 190.87 966.73 166.49 966.83"/><path class="cls-2" d="M133.25,627.5s38.26,113.43,36.06,148.89.37,164.2.37,164.2l25.62,1.14s18.37-140.82,22.65-200-5.64-170.93-5.64-170.93L111.53,587.59Z"/><path class="cls-2" d="M59,603.5c-3.43,65.73,26.87,113.41,30.3,171.78s2.47,178.24,2.47,178.24l25.43,1.64S138,819.32,136.77,754.21,145,603.53,145,603.53,62.47,537.77,59,603.5Z"/><path class="cls-1" d="M189,280.64a45.25,45.25,0,0,1,14,30.18C204,330.07,201.8,348,187.83,355s-20.71,6.63-22.24,13.31-1,15.74-1,15.74l.64,7.94-47.21-2.88s2.15-16.79.38-24.8-21.08-43-20.87-46.4-18.35-50.76,25.25-62.77S189,280.64,189,280.64Z"/><path class="cls-1" d="M201.74,311.88l6.56.4s3.93.24,3.69,4.17-4.17,3.7-4.17,3.7l-6.56-.4Z"/><circle cx="182.31" cy="306.75" r="2.82"/><path class="cls-5" d="M135,388.58l-28.69-1.35S86,387.07,82,405.19,50.32,596.75,50.32,596.75l172,2.15L196.08,420.19s-.91-28.77-14.41-29.4Z"/><rect class="cls-1" x="248.14" y="172.21" width="10.14" height="47.12" rx="4.5" ry="4.5" transform="translate(11.12 -13.6) rotate(3.14)"/><rect class="cls-1" x="238.42" y="167.13" width="10.14" height="47.12" rx="4.5" ry="4.5" transform="translate(10.83 -13.07) rotate(3.14)"/><rect class="cls-1" x="228.3" y="166.57" width="10.14" height="47.12" rx="4.5" ry="4.5" transform="translate(10.78 -12.52) rotate(3.14)"/><rect class="cls-1" x="218.18" y="166.02" width="10.14" height="47.12" rx="4.5" ry="4.5" transform="translate(10.74 -11.96) rotate(3.14)"/><path class="cls-1" d="M212.91,209.48c2.42,5.7,25.12,15.64,25.12,15.64l19.64-15.06-1.48-12.32S210.49,203.78,212.91,209.48Z"/><path class="cls-5" d="M177.94,405.49l22.27,54.28S281.63,356,281.76,342.91s-3.27-26.85-3.27-26.85L257,211.25l-31.78,4.07s16.56,88.07,14.07,78.77,6.84,28.19,4.43,39.85S177.94,405.49,177.94,405.49Z"/><rect class="cls-1" x="23.49" y="166.58" width="10.14" height="47.12" rx="4.5" ry="4.5" transform="translate(67.5 378.43) rotate(176.86)"/><rect class="cls-1" x="33.21" y="161.5" width="10.14" height="47.12" rx="4.5" ry="4.5" transform="translate(86.65 367.74) rotate(176.86)"/><rect class="cls-1" x="43.33" y="160.94" width="10.14" height="47.12" rx="4.5" ry="4.5" transform="translate(106.84 366.07) rotate(176.86)"/><rect class="cls-1" x="53.45" y="160.39" width="10.14" height="47.12" rx="4.5" ry="4.5" transform="translate(127.04 364.41) rotate(176.86)"/><path class="cls-1" d="M68.86,203.85c-2.42,5.7-25.12,15.64-25.12,15.64L24.1,204.42l1.48-12.32S71.28,198.15,68.86,203.85Z"/><path class="cls-5" d="M103.82,399.86,81.55,454.13S.14,350.35,0,337.28s3.28-26.85,3.28-26.85L24.73,205.62l31.77,4.07s-16.56,88.07-14.07,78.77S35.59,316.65,38,328.31,103.82,399.86,103.82,399.86Z"/><polygon class="cls-6" points="12.87 181.98 274.8 181 271.46 1.32 16.43 11.21 12.87 181.98"/><rect class="cls-1" x="204.82" y="171.56" width="10.14" height="41.37" rx="4.5" ry="4.5" transform="matrix(0.9, -0.44, 0.44, 0.9, -63.6, 113.39)"/><rect class="cls-1" x="66.81" y="165.93" width="10.14" height="41.37" rx="4.5" ry="4.5" transform="translate(53.27 385.74) rotate(-153.6)"/><path class="cls-3" d="M119,246.05c31.6-11.89,59.39,8,67.32,13.72,8.12,5.82,14.58,10.46,14.68,17.09.31,20.6-61.16,39.31-68.61,28.67-2.14-3.06-.54-9.53-5.27-12.7a7.57,7.57,0,0,0-5.5-1.22c-3.78.85-5.56,5.35-6.1,6.73-4.13,10.47,7.31,25.84,11.52,31.38,13.14,17.29,20,15.63,24.22,26.11,4.86,12.18,1.16,28.5-8.5,38.49C125.91,411.76,92.7,408,83.16,392.68c-7.91-12.73.79-32.95,2.28-36.4,5.22-12.13,10.45-12.48,11.46-20.54,1.88-15.07-15.58-20.59-18.49-36.38C74.81,279.89,95.24,255,119,246.05Z"/><path class="cls-8" d="M400.23,582.11c-7.67-11.19,1.29-21.75-5.63-29.28-7.39-8.05-28.06-7.37-38.29,4.5-9.54,11.08-5.3,26.43-4.5,29.28,4.89,17.72,21.63,25.61,27,28.16,17.54,8.27,33.95,5,47.31,2.25,10.36-2.1,26.22-6.94,25.9-11.26-.24-3.19-9.11-3.39-27-10.14C411.07,590.38,404.1,587.76,400.23,582.11Z"/><polygon class="cls-1" points="393.75 1010.13 427.93 1013.84 424.18 1029.15 390.34 1034.78 393.75 1010.13"/><polygon class="cls-1" points="120.08 1020.87 92.7 1041.67 84.9 1027.97 105.62 1000.62 120.08 1020.87"/><path class="cls-1" d="M353.11,611.23a45.28,45.28,0,0,0-14.36,30c-1.35,19.23.62,37.18,14.49,44.41s20.63,6.92,22.07,13.62.74,15.75.74,15.75l-.75,7.93,47.25-2.23s-1.92-16.83,0-24.81,21.65-42.74,21.5-46.11,19-50.51-24.41-63.12S353.11,611.23,353.11,611.23Z"/><path class="cls-1" d="M345.26,637.94l-6.46-1.21s-3.87-.73-4.6,3.15,3.15,4.6,3.15,4.6l6.45,1.21Z"/><circle cx="356.05" cy="632.92" r="2.82"/><rect class="cls-1" x="514.77" y="506.7" width="10.14" height="47.12" rx="4.5" ry="4.5" transform="translate(29.87 -27.72) rotate(3.14)"/><rect class="cls-1" x="505.05" y="501.62" width="10.14" height="47.12" rx="4.5" ry="4.5" transform="translate(29.58 -27.19) rotate(3.14)"/><rect class="cls-1" x="494.93" y="501.06" width="10.14" height="47.12" rx="4.5" ry="4.5" transform="translate(29.53 -26.64) rotate(3.14)"/><rect class="cls-1" x="484.81" y="500.51" width="10.14" height="47.12" rx="4.5" ry="4.5" transform="translate(29.49 -26.08) rotate(3.14)"/><path class="cls-1" d="M479.54,544c2.42,5.7,25.12,15.64,25.12,15.64l19.64-15.06-1.48-12.32S477.12,538.27,479.54,544Z"/><path class="cls-2" d="M433.37,729.84,469.15,774s89-82.39,91.69-86.45,2.7-11.94-1-26.84C554.53,633.92,526,546.87,526,546.87l-28.4,6.32,27.59,99s2.33,7.59-.08,12.82C519.61,671.08,433.37,729.84,433.37,729.84Z"/><polygon class="cls-3" points="413.48 1009.65 432.03 1004.55 475.73 1037.52 471.66 1043.04 436.06 1027.36 415.59 1035.75 413.48 1009.65"/><polygon class="cls-3" points="94.93 1045.59 73.11 1061.89 35.75 1014.48 41.07 1010.16 71.62 1034.23 82.67 1024.06 94.93 1045.59"/><rect class="cls-1" x="284.2" y="481.92" width="10.14" height="47.12" rx="4.5" ry="4.5" transform="translate(605.83 994.34) rotate(176.86)"/><rect class="cls-1" x="293.92" y="476.84" width="10.14" height="47.12" rx="4.5" ry="4.5" transform="translate(624.98 983.65) rotate(176.86)"/><rect class="cls-1" x="304.04" y="476.29" width="10.14" height="47.12" rx="4.5" ry="4.5" transform="translate(645.17 981.99) rotate(176.86)"/><rect class="cls-1" x="314.16" y="475.73" width="10.14" height="47.12" rx="4.5" ry="4.5" transform="translate(665.37 980.32) rotate(176.86)"/><path class="cls-1" d="M329.57,519.19c-2.42,5.7-25.12,15.64-25.12,15.64l-19.64-15.06,1.48-12.32S332,513.49,329.57,519.19Z"/><path class="cls-2" d="M364.53,719.71,342.26,774S260.85,670.2,260.72,657.12,264,630.28,264,630.28l21.45-104.81,31.78,4.06s-16.57,88.08-14.08,78.78-6.83,28.19-4.42,39.85S364.53,719.71,364.53,719.71Z"/><polygon class="cls-6" points="532.9 520.64 248.58 490.16 266.8 311.18 518.49 319.57 532.9 520.64"/><rect class="cls-1" x="327.52" y="481.28" width="10.14" height="41.37" rx="4.5" ry="4.5" transform="translate(407.27 1099.47) rotate(-153.6)"/><rect class="cls-1" x="471.45" y="506.05" width="10.14" height="41.37" rx="4.5" ry="4.5" transform="translate(-184.53 266.85) rotate(-26.4)"/><path class="cls-3" d="M339.42,944.75s-13.52,5.64-99.11,38.3c-4.3,2.41-13.26,7.43-15.77,16.89-2.35,8.88,6.76,11.26,6.76,11.26h21.4s124.37-5.49,127.26-27C382.3,966.7,339.42,944.75,339.42,944.75Z"/><path class="cls-4" d="M237.68,989.24c8.26,1.69,137.36,16.57,137.36,16.57l20,2.27-.1,27.5s-148.16-5-165.91-12.1a19.7,19.7,0,0,1-6.74-17.34C223,1000,229.42,987.55,237.68,989.24Z"/><path class="cls-4" d="M356.55,990.41c-23.63-26.27-57.83-56.1-89.74-53.71-56.25,4.22-147.3,92.31-147.3,92.31l-24.05-26.68S210.88,886.85,255.87,882.8s196.72,38,196.72,38-18.81,56.78-30.51,67.42S374.57,1010.45,356.55,990.41Z"/><path class="cls-2" d="M390.64,717.28,362,715.92s-15.84,7.57-17.5,18-22.71,155.52-22.71,155.52l141.59,47.2L463,748.88s-12.17-28.76-25.67-29.4Z"/><path class="cls-9" d="M378.83,576.48c-7.66-11.19,1.29-21.75-5.63-29.28-7.39-8.05-28.06-7.37-38.29,4.5-9.54,11.08-5.29,26.43-4.5,29.28,4.89,17.72,21.63,25.61,27,28.16,17.53,8.27,33.94,5,47.3,2.25,10.37-2.1,26.22-6.94,25.9-11.26-.23-3.19-9.1-3.39-27-10.14C389.67,584.75,382.7,582.13,378.83,576.48Z"/><path class="cls-9" d="M380,602.38c-.13-2.54-.66-17.52,10.14-27,10.3-9.08,23.9-7,32.66-5.63,5,.77,24.2,3.74,36,20.27,10.86,15.17,8.61,32.11,6.75,46.18-1.18,9-3.76,28.49-19.14,43.92-9.46,9.49-25.49,19.18-31.54,14.64-6.91-5.18-2.7-30.4,1.13-41.67a25.9,25.9,0,0,0,1.13-12.39c-.27-1.63-1.51-9.25-5.63-10.13-3.52-.75-7.37,3.78-9,6.75-3.06,5.53-2.43,12.68-2.26,14.65.34,3.76,1.15,5.6,0,6.75-2.09,2.12-8.12-.71-9-1.12C379.07,651.86,379.51,615.42,380,602.38Z"/><path class="cls-9" d="M463.3,619.27c2.62-9.33,24.2-17.08,36-7.88,7,5.46,10.42,16.72,7.88,24.78-1.14,3.63-3.09,5.39-3.37,10.13-.24,4.07.72,10.78,4.5,12.39s6.76-3.79,14.64-5.63c6.09-1.42,14.41-.51,20.27,4.51,8.6,7.35,9.87,21.74,4.51,29.28-4.42,6.22-11.88,5.68-12.39,10.13s6,9,11.26,11.27c11.63,4.85,18.28-2.21,27,2.25,7.47,3.8,10.69,13,11.26,19.15,1.71,18.1-17.83,30-20.27,31.53-10.63,6.5-28.9,11.45-39.42,3.38-6.17-4.74-4.29-9.82-15.76-24.78-7.27-9.47-10.7-10.92-13.52-11.26-7.11-.86-15.5,4.72-15.77,10.13-.31,6.34,10.75,7.58,13.52,16.9,2.42,8.12-2.61,18.46-9,22.52-12.61,8-36.88-3.5-46.18-20.27-11-19.85-1.07-47.11,10.14-61.94,7.81-10.34,13.86-11.49,19.15-23.65,1.62-3.74,7.87-18.12,3.38-33.79C467.91,627,461.76,624.79,463.3,619.27Z"/><path class="cls-5" d="M476.93,621.86c2.47-10.63,1.53-13.12,1.12-14.07-2.1-4.84-7.78-9.08-12.25-8-5.23,1.25-6.82,9.3-8.88,19.75-1.83,9.26-3.15,15.91.79,19.36,3,2.61,8.1,2.67,11.57.84C473.19,637.66,474.49,632.36,476.93,621.86Z"/><path class="cls-4" d="M125.63,90.08c-1.57,11.31-1,25.89.76,34.15,9,1.15,34.2,1.5,39.73.7l.7-.08a6.84,6.84,0,0,0,1.69-.27c1.19-.4,1.92-1.77,1.76-6.18a3.2,3.2,0,0,1,1.4-2.76c2.9-2,3.34-4.12,2.2-8.14a3.2,3.2,0,0,1,2.5-4c1.09-.2,2.3-5.25,1.23-6.19a3.22,3.22,0,0,1-.09-4.76,7.22,7.22,0,0,0,1.37-4.07c0-2.86-.78-3.91-3.55-4.4a54.27,54.27,0,0,0-6.47-.67,108.58,108.58,0,0,0-12.45.2c-1,.07-2,.15-2.79.23l-1,.1a3.21,3.21,0,0,1-3.17-1.63,3.93,3.93,0,0,1-.42-1.21c-.38-2,.08-5.71,1.81-12.16,1.62-6-2.5-12.07-7.48-14.35-.71-.32-1.12-.29-1.53.24,0,1.49.06,3,0,4.44,0,1.21-.08,2.29-.17,3.23-.59,5.84-1.71,9.18-5.11,15.6A31.11,31.11,0,0,1,131.27,85a58.32,58.32,0,0,1-4.35,4C126.43,89.44,126,89.8,125.63,90.08Zm-1.39-7.22c.83-.75,1.65-1.53,2.43-2.33a25.57,25.57,0,0,0,4.25-5.48c3-5.72,3.88-8.28,4.38-13.23.08-.74.12-1.66.14-2.71,0-1.3,0-2.72,0-4.11,0-.66,0-1.17-.06-1.44a3.28,3.28,0,0,1,.46-1.84,8.14,8.14,0,0,1,1.69-1.92A7.65,7.65,0,0,1,146,48.72c7.54,3.45,13.57,12.28,11,21.85a64.44,64.44,0,0,0-1.48,6.64l.4,0A112.74,112.74,0,0,1,169.18,77a56.27,56.27,0,0,1,7.26.76c6,1,8.91,4.88,8.86,10.77a14.23,14.23,0,0,1-1.7,6.43c1.81,4.17.4,10.4-3,13.32.79,4.67-.25,8.5-3.92,11.61-.13,6-2.27,9.49-6.12,10.8a10.28,10.28,0,0,1-1.84.44c-.41.06-.46.06-1.32.14l-.38,0c-5.89.85-29.56.58-40.24-.55a3.23,3.23,0,0,1-1.32,1c-8.8,3.44-11.83,3.69-25.86,1.86A3.22,3.22,0,0,1,97,131.29C93,118,93.63,103.49,97,84a3.22,3.22,0,0,1,4-2.55c7.25,2,12,2.22,21.69,1.22A3.13,3.13,0,0,1,124.24,82.86ZM102.78,88.5c-2.56,15.88-3,28.17-.22,39,9.63,1.21,12.55,1.15,17.83-.71-2.17-9-2.85-24.85-1.15-37.33A51.86,51.86,0,0,1,102.78,88.5Z"/><path class="cls-2" d="M378.86,403.49c-2.83,11.06-3.93,25.61-3.09,34,8.81,2.16,33.81,5.35,39.4,5.18h.7a7.13,7.13,0,0,0,1.71-.07c1.24-.27,2.11-1.55,2.45-5.95a3.21,3.21,0,0,1,1.7-2.59c3.11-1.65,3.78-3.71,3.1-7.83a3.22,3.22,0,0,1,2.95-3.73c1.1-.07,2.87-4.95,1.91-6a3.21,3.21,0,0,1,.45-4.74,7.25,7.25,0,0,0,1.82-3.9c.35-2.84-.34-4-3-4.77a53,53,0,0,0-6.35-1.39,106.57,106.57,0,0,0-12.39-1.21l-2.8-.09h-1a3.22,3.22,0,0,1-3-2,4,4,0,0,1-.27-1.25c-.15-2,.72-5.66,3.16-11.88,2.29-5.83-1.12-12.27-5.81-15.1-.67-.4-1.07-.41-1.55.06-.12,1.5-.27,3-.46,4.43-.16,1.19-.34,2.26-.54,3.18-1.25,5.74-2.74,8.93-6.84,14.93a31.11,31.11,0,0,1-6.06,6.3c-1.54,1.26-3.16,2.43-4.77,3.5C379.73,402.94,379.26,403.25,378.86,403.49Zm-.56-7.34c.91-.64,1.81-1.33,2.68-2a25.82,25.82,0,0,0,4.84-5c3.64-5.34,4.79-7.79,5.84-12.65.16-.73.31-1.64.45-2.68.17-1.29.32-2.7.43-4.09,0-.66.09-1.16.11-1.43a3.18,3.18,0,0,1,.66-1.78,8.4,8.4,0,0,1,1.89-1.72,7.71,7.71,0,0,1,8.61-.11c7.09,4.28,12.09,13.73,8.47,22.95a64.81,64.81,0,0,0-2.22,6.43l.4,0a111.79,111.79,0,0,1,13.15,1.28,58.16,58.16,0,0,1,7.14,1.57c5.81,1.72,8.3,5.86,7.58,11.71a14.22,14.22,0,0,1-2.41,6.19c1.33,4.35-.77,10.38-4.46,12.91.26,4.72-1.21,8.41-5.2,11.09-.81,5.91-3.33,9.18-7.31,10a10.39,10.39,0,0,1-1.87.22c-.41,0-.46,0-1.33,0h-.39c-5.94.18-29.43-2.76-39.91-5.09a3.22,3.22,0,0,1-1.43.81c-9.12,2.43-12.16,2.34-25.9-1.07a3.21,3.21,0,0,1-2.39-2.55c-2.42-13.61-.17-28,5.41-47a3.21,3.21,0,0,1,4.28-2.08c7,2.82,11.68,3.56,21.41,3.66A3.1,3.1,0,0,1,378.3,396.15Zm-22,3.19C352,414.84,350.21,427,351.73,438c9.43,2.29,12.34,2.56,17.8,1.3-1.15-9.16,0-25,3.06-37.22A51.77,51.77,0,0,1,356.34,399.34Z"/><path class="cls-5" d="M747.06,95.65c-3.49,10.86-5.48,25.32-5.14,33.76,8.66,2.69,33.42,7.39,39,7.56l.7,0a7,7,0,0,0,1.71,0c1.24-.19,2.2-1.42,2.8-5.78a3.2,3.2,0,0,1,1.85-2.48c3.21-1.46,4-3.48,3.58-7.63a3.2,3.2,0,0,1,3.16-3.54c1.11,0,3.17-4.78,2.28-5.88a3.22,3.22,0,0,1,.74-4.71,7.23,7.23,0,0,0,2-3.77c.51-2.82-.1-4-2.74-5a52.53,52.53,0,0,0-6.25-1.78,105.27,105.27,0,0,0-12.3-2c-1-.11-2-.19-2.78-.26l-1-.07a3.2,3.2,0,0,1-2.84-2.16,3.87,3.87,0,0,1-.2-1.26c0-2,1.06-5.62,3.88-11.67,2.64-5.68-.37-12.32-4.88-15.42-.65-.45-1-.49-1.56,0-.21,1.48-.45,3-.73,4.39-.23,1.18-.47,2.24-.73,3.14-1.59,5.66-3.27,8.75-7.73,14.49a31.08,31.08,0,0,1-6.43,5.92c-1.62,1.16-3.31,2.24-5,3.2ZM747,88.29c.95-.59,1.89-1.22,2.79-1.87a25.3,25.3,0,0,0,5.14-4.67c4-5.1,5.25-7.48,6.6-12.27.2-.72.41-1.61.61-2.64.25-1.28.48-2.67.68-4.06.09-.65.16-1.15.19-1.42a3.28,3.28,0,0,1,.77-1.74,8.2,8.2,0,0,1,2-1.6,7.69,7.69,0,0,1,8.6.42c6.82,4.7,11.24,14.43,7.06,23.42a64.52,64.52,0,0,0-2.6,6.28l.4,0a113.47,113.47,0,0,1,13.05,2.08,59.59,59.59,0,0,1,7,2c5.7,2.07,7.93,6.35,6.86,12.15a14.34,14.34,0,0,1-2.78,6c1.06,4.41-1.4,10.31-5.24,12.6,0,4.73-1.72,8.33-5.87,10.76-1.16,5.85-3.87,9-7.9,9.58a11.66,11.66,0,0,1-1.88.11c-.41,0-.46,0-1.32-.09l-.39,0c-6-.18-29.21-4.55-39.54-7.51a3.14,3.14,0,0,1-1.47.73c-9.26,1.87-12.28,1.59-25.79-2.64a3.21,3.21,0,0,1-2.22-2.69c-1.59-13.73,1.52-28,8.24-46.58a3.21,3.21,0,0,1,4.4-1.81c6.8,3.24,11.45,4.26,21.16,4.94A3.3,3.3,0,0,1,747,88.29Zm-22.11,1.85c-5.27,15.2-7.8,27.23-7,38.33,9.27,2.86,12.16,3.31,17.68,2.39-.59-9.22,1.49-25,5.31-37A51.84,51.84,0,0,1,724.84,90.14Z"/></g></g></svg>