<svg xmlns="http://www.w3.org/2000/svg" viewBox="0 0 558.12 1112.46"><defs><style>.cls-1{fill:#efd0c5;}.cls-2{fill:none;stroke:#000;stroke-miterlimit:10;stroke-width:5px;}.cls-3{fill:#f05e24;}.cls-4{fill:#5e3966;}.cls-5{fill:#a166aa;}.cls-6{fill:#00ab7e;}.cls-7{fill:#f2d9d1;}</style></defs><title>konec</title><g id="Layer_2" data-name="Layer 2"><g id="Layer_1-2" data-name="Layer 1"><polygon class="cls-1" points="493.95 922.8 523.99 917.36 524.65 931.34 497.25 944.65 493.95 922.8"/><polygon class="cls-1" points="324.26 1037.97 341.45 1063.2 328.95 1069.49 305.64 1049.87 324.26 1037.97"/><path class="cls-2" d="M138.55,770.8a53.79,53.79,0,0,0,7.23-22.93c1.79-25.79-18.3-35.58-18.45-55.18-.21-27,37.59-28.77,45.6-59.55,8.79-33.81-31-53.88-31-99.32,0-31.71,22.93-27.27,28.67-66.71,3.35-23-2.29-33.52-2.41-91.53,0-9.3.1-16.95.22-22" transform="translate(-0.25 -0.25)"/><path class="cls-1" d="M219.55,528.54a40.21,40.21,0,0,0-12.76,26.63c-1.2,17.08.56,33,12.87,39.44s18.31,6.14,19.59,12.09.67,14,.67,14l-.67,7,41.95-2s-1.71-14.93,0-22,19.23-38,19.09-40.94,16.9-44.85-21.67-56S219.55,528.54,219.55,528.54Z" transform="translate(-0.25 -0.25)"/><path class="cls-1" d="M207.83,556.13l-5.82.27s-3.5.17-3.33,3.66a3.42,3.42,0,0,0,3.66,3.33l5.82-.27Z" transform="translate(-0.25 -0.25)"/><path class="cls-3" d="M302.58,557.6l-65.39-48.11a34.4,34.4,0,0,1,7-5.57c8.38-5.16,23.71-10.28,42.9,2.62C316.63,526.39,302.58,557.6,302.58,557.6Z" transform="translate(-0.25 -0.25)"/><path class="cls-3" d="M254.73,522.12,219.55,496.3s-6.53-3.51-1.79-6.56,22,6.77,22,6.77l34.34,20.31Z" transform="translate(-0.25 -0.25)"/><path class="cls-4" d="M267.58,531.73s-36.49,16.2-53-.27-6.88-26.78-6.88-26.78.46,14,8.46,13.73,9.73-8.33,9.73-8.33-2.23-6.93,9.9-3.32S267.58,531.73,267.58,531.73Z" transform="translate(-0.25 -0.25)"/><path class="cls-4" d="M276.65,538.53s1,12.3-7.74,17.72-14.17-3.34-14.17-3.34-1.63,8.09,2.51,10.89,12.22,4.43,16-.75,1.91-2.09,4.67-7.23c1.85-3.09,2.76-5.13,6.9-2.33,5.13,2.76,4.18,3.81,3.28,5.86s-5.62,8.27-6.48,11.31c-1.76,5.09-8,22.4,4.23,25.83s16.88-2.8,16.88-2.8-9.94,1.47-10.36-7.52,18-21.87,10.66-28.53S276.65,538.53,276.65,538.53Z" transform="translate(-0.25 -0.25)"/><circle cx="224.9" cy="551.56" r="2.5"/><rect class="cls-1" x="144.36" y="488.21" width="9" height="41.84" rx="4.5" ry="4.5" transform="translate(524.66 883.01) rotate(151.15)"/><rect class="cls-1" x="150.18" y="480.41" width="9" height="41.84" rx="4.5" ry="4.5" transform="translate(531.81 865.55) rotate(151.15)"/><rect class="cls-1" x="158.06" y="476.06" width="9" height="41.84" rx="4.5" ry="4.5" transform="translate(544.5 853.6) rotate(151.15)"/><rect class="cls-1" x="165.94" y="471.72" width="9" height="41.84" rx="4.5" ry="4.5" transform="translate(557.19 841.65) rotate(151.15)"/><rect class="cls-1" x="177.66" y="471.27" width="9" height="36.74" rx="4.5" ry="4.5" transform="translate(358.09 981.2) rotate(-179.3)"/><path class="cls-1" d="M186.38,504.58c.26,5.5-14.07,22.19-14.07,22.19l-21.52-4.49-3.56-10.43S186.12,499.09,186.38,504.58Z" transform="translate(-0.25 -0.25)"/><path class="cls-5" d="M244.78,643.87,213,683.06S154.6,638.2,141.6,626.3s-9.09-23.84-9.09-23.84l15-81.06L177.77,527,166.27,589c-.85,4.59.74,7.52,3.07,9.39C173.22,601.45,244.78,643.87,244.78,643.87Z" transform="translate(-0.25 -0.25)"/><path class="cls-6" d="M302.36,833.34C278.65,855.08,248.74,889,252,919.45c5.35,49.8,86.14,128.08,86.14,128.08l-23,22.11S209.38,970.51,204.5,930.7s38.68-156,38.68-156l63.35,26.24S305,830.94,302.36,833.34Z" transform="translate(-0.25 -0.25)"/><path class="cls-6" d="M310.16,783.57s-1,102.08,42.53,126.91S507,915.67,507,915.67l4.46,31.58S369.11,975,334,955.59,230.19,832.87,230.19,832.87Z" transform="translate(-0.25 -0.25)"/><polygon class="cls-3" points="523.8 913.36 547.63 909.23 558.12 961.79 552.18 963.08 537.68 931.73 524.84 935.34 523.8 913.36"/><polygon class="cls-3" points="345.03 1061.4 358.49 1081.49 314.74 1112.45 311.15 1107.55 333.89 1081.55 325.37 1071.29 345.03 1061.4"/><path class="cls-5" d="M260.72,626.71l25.47-1.2s20-1,22.55,11,2.16,173.09,2.16,173.09l-82.72,7.91L196.47,654.77s10.81-25.54,22.8-26.1Z" transform="translate(-0.25 -0.25)"/><path class="cls-3" d="M130.79,350.46a8.08,8.08,0,0,0,8,8.35l57.15,1.33a8.09,8.09,0,0,0,8.36-8l.18-8.17L131,342.3Z" transform="translate(-0.25 -0.25)"/><path class="cls-3" d="M.25,167.72a8.17,8.17,0,0,0,8,8.35l32.65.76a8.17,8.17,0,0,0,.39-16.33l-32.66-.76A8.18,8.18,0,0,0,.25,167.72Z" transform="translate(-0.25 -0.25)"/><path class="cls-7" d="M189.57,105.62a8.46,8.46,0,0,0,5,9.18,61.35,61.35,0,0,1,37.56,47.45,8.47,8.47,0,0,0,9.29,6.86,8.6,8.6,0,0,0,6.85-9.41,77.34,77.34,0,0,0-47.49-59.95,12.41,12.41,0,0,0-3.42-.59C194,99.06,191.05,100.74,189.57,105.62Z" transform="translate(-0.25 -0.25)"/><path class="cls-3" d="M158.8,375.62a8.17,8.17,0,1,0,16.33.37Z" transform="translate(-0.25 -0.25)"/><path class="cls-3" d="M53.33,47.7a8.07,8.07,0,0,0-.27,11.48L75.62,82.8A8.12,8.12,0,1,0,87.36,71.59L64.81,48a8,8,0,0,0-11.48-.26Z" transform="translate(-0.25 -0.25)"/><path class="cls-3" d="M294.16,174.54a8.18,8.18,0,0,0,8,8.36l32.66.75a8.17,8.17,0,1,0,.37-16.33l-32.66-.75A8.17,8.17,0,0,0,294.16,174.54Z" transform="translate(-0.25 -0.25)"/><path class="cls-3" d="M194.6,114.8a8.46,8.46,0,0,1-5-9.18c1.48-4.88,4.46-6.56,7.82-6.46a12.41,12.41,0,0,1,3.42.59A77.34,77.34,0,0,1,248.3,159.7a8.6,8.6,0,0,1-6.85,9.41,8.47,8.47,0,0,1-9.29-6.86A61.35,61.35,0,0,0,194.6,114.8ZM65.68,164.52c-.88,37.47,13.16,61.63,26.2,81s24.22,33.65,23.72,55.55l-1.14,49a24.62,24.62,0,0,0,23.93,25.06l4.08.1a24.5,24.5,0,0,0,49,1.14l4.08.09a24.62,24.62,0,0,0,25.06-23.92l1.13-49c.52-21.9,12.37-35.64,26.28-54.4s29.07-42.24,29.93-79.72C279.32,110,228.17,66.82,174.17,65.57S67.05,105.09,65.68,164.52Zm73.08,194.29a8.08,8.08,0,0,1-8-8.35l.19-8.16,73.47,1.7-.18,8.17a8.09,8.09,0,0,1-8.36,8ZM131.36,326l.38-16.33,73.48,1.72-.38,16.32Zm35.41,58a8,8,0,0,1-8-8.35l16.33.37A8,8,0,0,1,166.77,384Z" transform="translate(-0.25 -0.25)"/><path class="cls-3" d="M166.57,40.89a8.17,8.17,0,1,0,16.33.37l.76-32.66a8.17,8.17,0,0,0-16.33-.37Z" transform="translate(-0.25 -0.25)"/><polygon class="cls-3" points="131.49 309.38 131.12 325.71 204.59 327.42 204.97 311.1 131.49 309.38"/><path class="cls-3" d="M260.6,75.61a8.12,8.12,0,1,0,11.21,11.75l23.63-22.55a8.12,8.12,0,1,0-11.21-11.74Z" transform="translate(-0.25 -0.25)"/><path class="cls-4" d="M114.22,350.55a24.64,24.64,0,0,0,24.15,24.86l4.08.06a24.5,24.5,0,1,0,49,.72l4.08.06a24.63,24.63,0,0,0,24.86-24.13l.52-35.28-106.14-3.17Z" transform="translate(-0.25 -0.25)"/></g></g></svg>