<svg xmlns="http://www.w3.org/2000/svg" viewBox="0 0 380.2 1111.02"><defs><style>.cls-1{fill:#efd0c5;}.cls-2{fill:#007455;}.cls-3{fill:none;stroke:#000;stroke-miterlimit:10;stroke-width:5px;}.cls-4{fill:#a166aa;}.cls-5{fill:#e4ccea;}.cls-6{fill:#f05e24;}.cls-7{fill:#00ab7e;}.cls-8{fill:#5e3966;}</style></defs><title>nagovor</title><g id="Layer_2" data-name="Layer 2"><g id="Layer_1-2" data-name="Layer 1"><polygon class="cls-1" points="127.64 1038.81 114.43 1066.33 127.74 1070.67 147.84 1047.78 127.64 1038.81"/><polygon class="cls-2" points="110.63 1065.08 100.33 1086.97 148.23 1111.02 151.04 1105.63 124.66 1083.34 131.54 1071.91 110.63 1065.08"/><path class="cls-3" d="M255.49,746.48a53.76,53.76,0,0,0,4.36-23.64c-1.38-25.82-22.53-33.07-25.08-52.51-3.52-26.71,33.77-33.16,37.94-64.69,4.58-34.63-37.39-49.67-43-94.76C225.86,479.41,249.16,481,250,441.15c.5-23.25-6.38-33-13.63-90.54-1.16-9.22-2-16.83-2.48-21.86" transform="translate(0 -0.25)"/><rect class="cls-1" x="238.44" y="656.42" width="9" height="41.84" rx="4.5" ry="4.5" transform="translate(863.76 313.22) rotate(79.36)"/><rect class="cls-1" x="240.77" y="646.97" width="9" height="41.84" rx="4.5" ry="4.5" transform="translate(856.36 303.23) rotate(79.36)"/><rect class="cls-1" x="239.1" y="638.12" width="9" height="41.84" rx="4.5" ry="4.5" transform="translate(846.31 297.65) rotate(79.36)"/><rect class="cls-1" x="237.44" y="629.28" width="9" height="41.84" rx="4.5" ry="4.5" transform="translate(836.26 292.07) rotate(79.36)"/><rect class="cls-1" x="232.31" y="620.87" width="9" height="36.74" rx="4.5" ry="4.5" transform="translate(572.29 45.56) rotate(49.81)"/><path class="cls-1" d="M222.59,645.49c-4.4,3.29-8.17,25-8.17,25l17.15,13.75,10.31-3.88S227,642.2,222.59,645.49Z" transform="translate(0 -0.25)"/><path class="cls-2" d="M80.5,644.68,57.18,689.42s64.4,35.75,80.49,42.93,25.49-1.14,25.49-1.14l68.38-46.06-17.17-25.49-52.25,35.2c-3.87,2.6-7.2,2.31-9.84.92C147.88,693.46,80.5,644.68,80.5,644.68Z" transform="translate(0 -0.25)"/><path class="cls-4" d="M40.5,194.15a8.17,8.17,0,0,0,9.23,6.94l32.35-4.57a8.17,8.17,0,0,0-2.28-16.18l-32.35,4.58A8.17,8.17,0,0,0,40.5,194.15Z" transform="translate(0 -0.25)"/><path class="cls-4" d="M73.31,67.08a8.08,8.08,0,0,0,1.61,11.37L101,98.09a8.12,8.12,0,0,0,9.76-13L84.69,65.47a8,8,0,0,0-11.38,1.61Z" transform="translate(0 -0.25)"/><path class="cls-4" d="M223.63,110.26a8.45,8.45,0,0,1-6.46-8.24c.67-5,3.33-7.19,6.66-7.64a12.69,12.69,0,0,1,3.48,0,77.35,77.35,0,0,1,56.62,51.41,8.59,8.59,0,0,1-5.22,10.4A8.47,8.47,0,0,1,268.42,151,61.36,61.36,0,0,0,223.63,110.26ZM104.54,180.33c5.24,37.11,23,58.66,39.05,75.67s29.39,29.25,32.46,50.94l6.86,48.52a24.61,24.61,0,0,0,27.69,20.82l4-.57a24.5,24.5,0,0,0,48.52-6.85l4-.57A24.64,24.64,0,0,0,288,340.6l-6.87-48.52c-3.06-21.7,6.4-37.18,17.07-58s21.79-46.41,16.54-83.53C306.44,91.74,248.93,57.45,195.45,65S96.21,121.47,104.54,180.33ZM208.31,360.11a8.07,8.07,0,0,1-9.23-6.94l-1.14-8.08,72.77-10.3,1.15,8.09a8.1,8.1,0,0,1-6.95,9.23Zm-12.66-31.2-2.29-16.17,72.78-10.28,2.28,16.16ZM240,380.37a8,8,0,0,1-9.22-6.94L247,371.14A8,8,0,0,1,240,380.37Z" transform="translate(0 -0.25)"/><path class="cls-4" d="M199.08,353.17a8.07,8.07,0,0,0,9.23,6.94l56.6-8a8.1,8.1,0,0,0,6.95-9.23l-1.15-8.09-72.77,10.3Z" transform="translate(0 -0.25)"/><polygon class="cls-4" points="193.36 312.49 195.65 328.66 268.42 318.37 266.14 302.2 193.36 312.49"/><path class="cls-4" d="M230.82,373.43A8.17,8.17,0,0,0,247,371.14Z" transform="translate(0 -0.25)"/><path class="cls-4" d="M183.93,41.91a8.17,8.17,0,1,0,16.17-2.29L195.53,7.27a8.17,8.17,0,0,0-16.17,2.29Z" transform="translate(0 -0.25)"/><path class="cls-5" d="M217.17,102a8.45,8.45,0,0,0,6.46,8.24A61.36,61.36,0,0,1,268.42,151a8.47,8.47,0,0,0,10.29,5.25,8.59,8.59,0,0,0,5.22-10.4A77.35,77.35,0,0,0,227.31,94.4a12.69,12.69,0,0,0-3.48,0C220.5,94.83,217.84,97,217.17,102Z" transform="translate(0 -0.25)"/><path class="cls-4" d="M282.36,60.85a8.12,8.12,0,0,0,13,9.76L315,44.51a8.12,8.12,0,1,0-13-9.76Z" transform="translate(0 -0.25)"/><path class="cls-4" d="M331.6,153a8.16,8.16,0,0,0,9.23,6.94l32.35-4.57a8.17,8.17,0,1,0-2.3-16.17l-32.34,4.57A8.17,8.17,0,0,0,331.6,153Z" transform="translate(0 -0.25)"/><path class="cls-6" d="M182.75,356a24.61,24.61,0,0,0,27.87,20.59l4-.6a24.5,24.5,0,1,0,48.45-7.27l4-.61a24.62,24.62,0,0,0,20.59-27.86l-5.24-34.89L177.27,319.49Z" transform="translate(0 -0.25)"/><polygon class="cls-1" points="294.69 898.72 314.45 921.99 323.83 911.6 311.09 883.93 294.69 898.72"/><path class="cls-1" d="M94.13,518.69A40.25,40.25,0,0,1,112,542.19c4.63,16.48,6.14,32.44-4.63,41.23s-16.68,9.72-16.73,15.8,2.18,13.83,2.18,13.83l2.08,6.76-41.48,6.55s-1.36-15-4.43-21.57S22.5,571.52,22,568.56s-25.63-40.5,9.87-59.27S94.13,518.69,94.13,518.69Z" transform="translate(0 -0.25)"/><path class="cls-1" d="M111.19,543.33l5.76-.91a3.43,3.43,0,0,1,4,2.92c.55,3.45-2.91,4-2.91,4l-5.76.91Z" transform="translate(0 -0.25)"/><circle cx="93.35" cy="542.36" r="2.5"/><rect class="cls-1" x="240.52" y="529.35" width="9" height="41.84" rx="4.5" ry="4.5" transform="translate(428.88 -23.59) rotate(41.77)"/><rect class="cls-1" x="236.6" y="520.44" width="9" height="41.84" rx="4.5" ry="4.5" transform="translate(421.95 -23.24) rotate(41.77)"/><rect class="cls-1" x="229.89" y="514.44" width="9" height="41.84" rx="4.5" ry="4.5" transform="translate(416.25 -20.3) rotate(41.77)"/><rect class="cls-1" x="223.17" y="508.45" width="9" height="41.84" rx="4.5" ry="4.5" transform="translate(410.54 -17.35) rotate(41.77)"/><rect class="cls-1" x="212.42" y="505.45" width="9" height="36.74" rx="4.5" ry="4.5" transform="translate(115.85 -34.31) rotate(12.23)"/><path class="cls-1" d="M209.47,537.44c-1.48,5.3,8.75,24.77,8.75,24.77l22,.44,5.8-9.36S211,532.14,209.47,537.44Z" transform="translate(0 -0.25)"/><path class="cls-7" d="M96.37,613.11l8.81,60s72.83-10.95,90-15.07,19.5-16.45,19.5-16.45l26.1-78.2-29.15-9.73-19.95,59.76c-1.47,4.42-4.29,6.21-7.23,6.72C179.52,621,96.37,613.11,96.37,613.11Z" transform="translate(0 -0.25)"/><path class="cls-6" d="M103,823.3c27.24-17.1,67.86-36.95,96.37-25.71C246,816,300,914.6,300,914.6l27.41-16.3S259.92,770,222.83,754.75s-160.67-4.06-160.67-4.06l8.5,68S100,825.19,103,823.3Z" transform="translate(0 -0.25)"/><path class="cls-6" d="M82.4,839c28.8,12.43,63.6,32.75,70.64,60.28,12.4,48.53-35.89,150.12-35.89,150.12l29.26,12.67S210.85,932.21,201.5,893.2s-90.81-132.61-90.81-132.61L62.61,805.38S60.43,829.52,82.4,839Z" transform="translate(0 -0.25)"/><polygon class="cls-2" points="311.77 924.96 327.57 943.27 369.03 909.29 365.24 904.52 334.15 919.57 326.51 908.63 311.77 924.96"/><path class="cls-7" d="M151.86,775.11c-3,13-44.39,35.58-62,41-12.94,4-33.45,10.28-40,2-5.91-7.46,6.38-18.07,9-39,3.85-30.89-18.46-43.24-26-82-6.72-34.49-5-48.2,2-57,2.75-3.47,5.5-5.31,11-9,11.6-7.78,32-20.54,49-18.27s52,51.27,53,68.27-9,13-17,16c3,7.84,8.42,18.56,15.48,36.3,5.52,13.74,7.55,20,7.78,25.74S153.86,770.11,151.86,775.11Z" transform="translate(0 -0.25)"/><path class="cls-8" d="M26.86,502.11c25.12-16.36,53-4.41,61-1,8.15,3.49,14.64,6.27,16,12,4.21,17.8-45.5,45.8-54,38-2.44-2.24-2.3-8.16-7-10a6.68,6.68,0,0,0-5,0c-3.12,1.46-3.8,5.7-4,7-1.58,9.86,11.28,21,16,25,14.7,12.47,20.36,9.71,26,18,6.54,9.63,6.46,24.48,0,35-11.29,18.35-40.8,21.48-52,10-9.3-9.53-5.63-28.73-5-32,2.2-11.52,6.67-12.82,6-20-1.26-13.43-17.45-14.87-23-28C-5,539.91,8,514.42,26.86,502.11Z" transform="translate(0 -0.25)"/></g></g></svg>