<svg xmlns="http://www.w3.org/2000/svg" viewBox="0 0 1178.15 805.8"><defs><style>.cls-1{fill:#5e3966;}.cls-2{fill:#efd0c5;}.cls-3{fill:#00ab7e;}.cls-4{fill:#a166aa;}.cls-5{fill:#003a29;}.cls-6{fill:#f05e24;}.cls-7{fill:#00684a;}.cls-8{fill:#007455;}</style></defs><title>narejen-projekt</title><g id="Layer_2" data-name="Layer 2"><g id="Layer_1-2" data-name="Layer 1"><path class="cls-1" d="M370.88,61c6.2-.54.48-13.49,7.51-13.94,7.51-.49,17.48,9.69,16.91,20.47-.53,10.06-9.95,15.68-11.7,16.72-10.87,6.48-23,2.44-26.86,1.14-12.67-4.23-24.61-14.22-24.61-14.22l-6.5,5.66s21-15.17,27.51-17.83S364.69,61.51,370.88,61Z"/><path class="cls-2" d="M393.49,87.47a31.25,31.25,0,0,1,9.89,20.66c.93,13.25-.43,25.61-10,30.59s-14.2,4.77-15.19,9.38a45.26,45.26,0,0,0-.51,10.85l.51,5.46-32.54-1.54s1.32-11.58,0-17.08S330.77,116.35,330.88,114s-13.11-34.79,16.81-43.47S393.49,87.47,393.49,87.47Z"/><path class="cls-2" d="M398.9,105.87l4.44-.83a2.72,2.72,0,0,1,1,5.34l-4.45.83Z"/><circle cx="391.47" cy="102.42" r="1.94"/><rect class="cls-2" x="476.08" y="38.25" width="6.98" height="51.92" rx="3.4" ry="3.4" transform="translate(67.34 -189.11) rotate(23.94)"/><rect class="cls-2" x="473.83" y="28.89" width="6.98" height="51.92" rx="3.4" ry="3.4" transform="translate(63.34 -189) rotate(23.94)"/><rect class="cls-2" x="470.45" y="21.06" width="6.98" height="51.92" rx="3.4" ry="3.4" transform="translate(59.87 -188.3) rotate(23.94)"/><rect class="cls-2" x="463.07" y="21.22" width="6.98" height="51.92" rx="3.4" ry="3.4" transform="translate(59.3 -185.29) rotate(23.94)"/><path class="cls-2" d="M448.32,67.08c.16,4.26,9.36,16.33,9.36,16.33l12.11-4.73,1.46-8.27S448.16,62.82,448.32,67.08Z"/><path class="cls-3" d="M371.13,175.47l12.24,37.17s77.45-31.28,80.18-33.24,4.66-7,5.91-17.53c3.14-18.53,6.05-81.56,6.05-81.56l-19.83-2.88L449.22,148s-.36,5.45-3.19,8.23C441,158.73,371.13,175.47,371.13,175.47Z"/><path class="cls-3" d="M344.21,201.92l-15.34-37.39S272.8,236,272.7,245A85.45,85.45,0,0,0,275,263.51l14.77,72.19,21.89-2.8s-11.41-60.66-9.69-54.25-4.71-19.42-3.05-27.45S344.21,201.92,344.21,201.92Z"/><rect class="cls-2" x="447.1" y="42" width="6.98" height="28.5" rx="3.4" ry="3.4" transform="translate(-3.34 44.27) rotate(-5.6)"/><path class="cls-3" d="M367.64,160.52l19.76-.93s11,6.81,12.22,16S416.7,313,416.7,313l-97.15,40.34-1.49-165.61s8.12-25.26,17.42-25.7Z"/><path class="cls-4" d="M376.2,63.92c8.11-4.65,5.71-13.88,12.26-16.48,7-2.78,19.61,3.82,22.4,14.25,2.61,9.73-4.62,18-6,19.51-8.34,9.53-21.09,9.42-25.2,9.38-13.35-.11-22.54-7.08-30-12.76-5.8-4.4-14.19-12.15-12.7-14.73,1.11-1.91,6.67.62,19.81,1.8C367,65.8,372.11,66.26,376.2,63.92Z"/><path class="cls-4" d="M375,81.38c.09-1.75.46-12.06-7-18.61-7.1-6.26-16.46-4.81-22.49-3.88-3.44.53-16.67,2.57-24.83,14C313.22,83.3,314.76,95,316,104.65c.82,6.18,2.6,19.63,13.19,30.26,6.51,6.53,17.55,13.21,21.72,10.08,4.76-3.57,1.86-20.94-.78-28.7a17.89,17.89,0,0,1-.77-8.53c.18-1.13,1-6.38,3.87-7,2.43-.52,5.07,2.6,6.21,4.65,2.11,3.8,1.67,8.73,1.55,10.08-.23,2.6-.79,3.86,0,4.66,1.45,1.46,5.6-.49,6.21-.78C375.61,115.46,375.3,90.36,375,81.38Z"/><path class="cls-5" d="M735.38,91.29c-5.15-7.51.86-14.59-3.78-19.65-5-5.4-18.84-4.94-25.7,3-6.4,7.44-3.55,17.74-3,19.66,3.28,11.88,14.52,17.18,18.14,18.89,11.76,5.56,22.78,3.33,31.74,1.51,7-1.4,17.6-4.66,17.39-7.55C770,105,764,104.89,752,100.36,742.65,96.84,738,95.08,735.38,91.29Z"/><path class="cls-2" d="M703.75,110.83A30.47,30.47,0,0,0,694.11,131c-.9,12.91.42,24.95,9.73,29.81s13.84,4.64,14.81,9.14a44.41,44.41,0,0,1,.5,10.57l-.51,5.32,31.71-1.5s-1.29-11.29,0-16.64,14.54-28.69,14.43-30.95,12.78-33.9-16.37-42.36S703.75,110.83,703.75,110.83Z"/><path class="cls-2" d="M698.48,128.76l-4.33-.81a2.65,2.65,0,0,0-1,5.2l4.34.81Z"/><circle cx="705.72" cy="125.39" r="1.89"/><rect class="cls-2" x="812.66" y="25.51" width="6.8" height="46.81" rx="3.4" ry="3.4" transform="translate(3.91 -44.69) rotate(3.14)"/><rect class="cls-2" x="806.22" y="20.64" width="6.8" height="46.81" rx="3.4" ry="3.4" transform="translate(3.64 -44.35) rotate(3.14)"/><rect class="cls-2" x="799.43" y="20.26" width="6.8" height="46.81" rx="3.4" ry="3.4" transform="translate(3.6 -43.97) rotate(3.14)"/><rect class="cls-2" x="792.64" y="19.89" width="6.8" height="46.81" rx="3.4" ry="3.4" transform="translate(3.57 -43.6) rotate(3.14)"/><path class="cls-2" d="M788.6,65.7c1.63,3.82,16.86,10.49,16.86,10.49l13.18-10.11-1-8.27S787,61.87,788.6,65.7Z"/><path class="cls-6" d="M757.62,190.44l24,29.62s59.72-55.29,61.53-58,1.81-8-.68-18c-3.55-18-22.71-76.39-22.71-76.39l-19.06,4.24,18.51,66.47s1.57,5.1-.05,8.61C815.5,151,757.62,190.44,757.62,190.44Z"/><rect class="cls-2" x="657.01" y="5.87" width="6.8" height="49.82" rx="3.4" ry="3.4" transform="translate(1321.51 25.29) rotate(176.86)"/><rect class="cls-2" x="663.43" y="0.71" width="6.8" height="49.82" rx="3.4" ry="3.4" transform="translate(1334.07 14.63) rotate(176.86)"/><rect class="cls-2" x="670.23" y="0.34" width="6.8" height="49.82" rx="3.4" ry="3.4" transform="translate(1347.62 13.51) rotate(176.86)"/><rect class="cls-2" x="677.02" y="-0.03" width="6.8" height="49.82" rx="3.4" ry="3.4" transform="translate(1361.18 12.39) rotate(176.86)"/><path class="cls-2" d="M688,49.07c-1.62,3.82-16.85,10.5-16.85,10.5L657.92,49.45l1-8.26S689.58,45.24,688,49.07Z"/><path class="cls-6" d="M711.42,183.64l-14.95,36.42s-54.64-69.65-54.73-78.42a83.21,83.21,0,0,1,2.2-18l14.4-70.34L679.66,56s-11.11,59.11-9.44,52.86-4.59,18.92-3,26.75S711.42,183.64,711.42,183.64Z"/><rect class="cls-2" x="686.58" y="23.62" width="6.8" height="27.77" rx="3.4" ry="3.4" transform="translate(1291.31 377.93) rotate(-153.6)"/><rect class="cls-2" x="783.17" y="40.25" width="6.8" height="27.77" rx="3.4" ry="3.4" transform="translate(57.98 355.43) rotate(-26.4)"/><path class="cls-6" d="M728.94,182l-19.25-.91s-10.64,5.08-11.75,12.05S682.7,297.53,682.7,297.53l95,31.68-.22-126s-8.17-19.3-17.23-19.73Z"/><path class="cls-7" d="M721,87.51c-5.15-7.51.86-14.59-3.78-19.65-5-5.4-18.84-4.94-25.7,3-6.4,7.43-3.56,17.73-3,19.65,3.28,11.88,14.51,17.18,18.14,18.89,11.76,5.56,22.78,3.33,31.74,1.51,7-1.4,17.6-4.65,17.38-7.55-.15-2.15-6.11-2.28-18.14-6.81C728.29,93.06,723.61,91.3,721,87.51Z"/><path class="cls-7" d="M721.77,104.9c-.08-1.71-.44-11.76,6.8-18.14,6.92-6.1,16-4.69,21.92-3.78,3.35.52,16.25,2.51,24.19,13.6,7.29,10.18,5.78,21.55,4.54,31-.8,6-2.53,19.12-12.85,29.48-6.35,6.37-17.11,12.87-21.17,9.83-4.64-3.48-1.81-20.41.76-28a17.37,17.37,0,0,0,.75-8.31c-.17-1.1-1-6.22-3.77-6.81-2.37-.5-5,2.54-6.05,4.54-2,3.71-1.63,8.51-1.51,9.82.22,2.53.76,3.76,0,4.54-1.41,1.42-5.46-.48-6-.76C721.17,138.1,721.47,113.65,721.77,104.9Z"/><path class="cls-7" d="M777.7,116.24c1.76-6.27,16.24-11.47,24.19-5.3,4.72,3.67,7,11.23,5.29,16.63-.76,2.44-2.08,3.62-2.27,6.81-.16,2.72.49,7.23,3,8.31s4.53-2.55,9.82-3.78c4.09-.95,9.67-.34,13.61,3,5.77,4.94,6.62,14.6,3,19.66-3,4.17-8,3.81-8.31,6.8s4,6.07,7.56,7.56c7.8,3.26,12.26-1.48,18.14,1.51,5,2.55,7.17,8.75,7.55,12.85,1.15,12.15-12,20.16-13.6,21.16-7.14,4.36-19.4,7.68-26.46,2.27-4.14-3.18-2.88-6.59-10.58-16.63-4.87-6.36-7.18-7.33-9.07-7.56-4.77-.58-10.4,3.17-10.58,6.8-.21,4.25,7.21,5.09,9.07,11.34,1.62,5.45-1.75,12.39-6.05,15.12-8.46,5.38-24.75-2.35-31-13.61-7.39-13.32-.72-31.61,6.8-41.57,5.24-6.94,9.3-7.71,12.85-15.87,1.09-2.51,5.28-12.16,2.26-22.68C780.79,121.42,776.67,119.94,777.7,116.24Z"/><path class="cls-3" d="M786.85,118c1.66-7.14,1-8.81.75-9.44-1.4-3.25-5.22-6.1-8.22-5.38-3.51.84-4.58,6.24-6,13.26-1.23,6.21-2.11,10.67.53,13,2,1.75,5.44,1.79,7.76.56C784.34,128.57,785.21,125,786.85,118Z"/><rect class="cls-8" x="896.4" y="577.48" width="18" height="179"/><polygon class="cls-8" points="946.4 581.48 260.94 581.48 229.4 297.48 892.79 297.48 946.4 581.48"/><polygon class="cls-2" points="1129.88 725.49 1155.78 736.85 1149.05 747.94 1121.1 743.98 1129.88 725.49"/><polygon class="cls-8" points="1157.7 733.68 1178.15 742.85 1159 788.67 1153.77 786.57 1158.86 754.98 1147.12 751.11 1157.7 733.68"/><polygon class="cls-2" points="961.25 744.65 967.65 772.2 954.74 773.45 941.18 748.69 961.25 744.65"/><path class="cls-6" d="M1010.73,560.26c-27.76,10.83-64.94,30.1-72.32,57.52-12,44.81,31.51,139.48,31.51,139.48l-27.25,11.4s-58.19-121-49.08-157.08,85.66-121.79,85.66-121.79l45.94,43.88S1013.8,559.06,1010.73,560.26Z"/><path class="cls-6" d="M1040.92,557.57c-12.74,26.12-24.93,61.41-13.26,85,20.57,41.6,115.84,83.85,115.84,83.85L1130.58,753s-123.68-52.38-140.65-85.44-16.22-148-16.22-148l60.83,2.46S1050.64,537.64,1040.92,557.57Z"/><polygon class="cls-8" points="971.34 771.85 976.24 793.71 928.08 805.8 926.62 800.36 954.98 785.52 951.05 773.8 971.34 771.85"/><path class="cls-2" d="M187.64,253.3a34.94,34.94,0,0,1,11.09,23.14c1,14.84-.49,28.68-11.19,34.27s-15.91,5.33-17,10.5a51.23,51.23,0,0,0-.57,12.15l.58,6.12-36.45-1.73s1.48-13,0-19.13-16.71-33-16.59-35.58-14.68-39,18.83-48.69S187.64,253.3,187.64,253.3Z"/><path class="cls-2" d="M197.82,277.27l5.06.24a3,3,0,1,1-.29,6.07l-5.06-.24Z"/><path class="cls-6" d="M115.5,278.55l56.81-41.8a29.59,29.59,0,0,0-6.09-4.84c-7.28-4.49-20.59-8.94-37.27,2.28C103.29,251.43,115.5,278.55,115.5,278.55Z"/><path class="cls-6" d="M157.07,247.72l30.57-22.44s5.67-3,1.55-5.69-19.13,5.88-19.13,5.88l-29.83,17.65Z"/><path class="cls-1" d="M145.91,256.07s31.7,14.08,46.08-.23,6-23.28,6-23.28-.4,12.16-7.35,11.93-8.45-7.23-8.45-7.23,1.93-6-8.6-2.89S145.91,256.07,145.91,256.07Z"/><path class="cls-1" d="M138,262s-.88,10.69,6.72,15.4,12.32-2.9,12.32-2.9,1.41,7-2.19,9.47-10.62,3.85-13.88-.66-1.66-1.81-4.06-6.28c-1.61-2.68-2.39-4.46-6-2-4.46,2.4-3.63,3.31-2.85,5.08s4.88,7.19,5.63,9.84c1.53,4.42,6.9,19.46-3.67,22.44s-14.68-2.43-14.68-2.43,8.64,1.28,9-6.54-15.63-19-9.27-24.79S138,262,138,262Z"/><circle cx="182.77" cy="273.51" r="2.17"/><rect class="cls-2" x="74.22" y="177.88" width="7.82" height="36.35" rx="3.91" ry="3.91" transform="matrix(-1, 0.05, -0.05, -1, 166.9, 387.53)"/><rect class="cls-2" x="81.72" y="173.96" width="7.82" height="36.35" rx="3.91" ry="3.91" transform="translate(181.67 379.28) rotate(176.86)"/><rect class="cls-2" x="89.53" y="173.53" width="7.82" height="36.35" rx="3.91" ry="3.91" transform="translate(197.25 377.99) rotate(176.86)"/><rect class="cls-2" x="97.34" y="173.1" width="7.82" height="36.35" rx="3.91" ry="3.91" transform="translate(212.83 376.71) rotate(176.86)"/><path class="cls-2" d="M109.22,206.63c-1.86,4.4-19.38,12.07-19.38,12.07L74.69,207.07l1.14-9.5S111.09,202.23,109.22,206.63Z"/><path class="cls-4" d="M144.84,350l-27.6,34.06s-68.66-63.56-70.74-66.7-2.08-9.21.79-20.71c4.08-20.65,26.11-87.8,26.11-87.8l21.91,4.87L74,290.15s-1.79,5.85.06,9.89C78.31,304.69,144.84,350,144.84,350Z"/><path class="cls-2" d="M334.28,452.67c-4.76.44-17.41,14.77-17.41,14.77l6.43,18,9.4,1.82S339,452.24,334.28,452.67Z"/><rect class="cls-2" x="343.74" y="438.56" width="7.82" height="31.92" rx="3.91" ry="3.91" transform="matrix(0.15, 0.99, -0.99, 0.15, 745.04, 42.78)"/><rect class="cls-2" x="107.64" y="177.38" width="7.82" height="31.92" rx="3.91" ry="3.91" transform="translate(125.5 416.11) rotate(-153.6)"/><path class="cls-2" d="M922.15,306.82a33.2,33.2,0,0,0-7.72,23.09c.76,14.09,3.81,26.94,14.54,30.94s15.61,3.16,17.26,7.9a48.25,48.25,0,0,1,2,11.37l.17,5.83,34.11-5.9s-2.92-12-2.27-18,11.86-33,11.44-35.44,9.26-38.4-23.43-43.63S922.15,306.82,922.15,306.82Z"/><path class="cls-2" d="M915.38,330.58l-4.74.82a2.88,2.88,0,0,0,1,5.68l4.74-.82Z"/><circle cx="929.1" cy="325.28" r="2.06"/><path class="cls-3" d="M963.09,534.58c7.55,9.43,50.17,11.62,66.67,9.13,12.11-1.83,31.32-4.73,33.42-14.06,1.89-8.4-12.3-12.23-22.64-28.29-15.27-23.68-1.9-42.52-11-77.1-8-30.78-14.84-41.28-24-45.72-3.6-1.76-6.57-2.18-12.5-3-12.52-1.8-34.19-4.2-47.16,4.32s-13.25,69.09-13.25,69.09L948,447.76s2.06,33.36,3.26,50.6c.88,13.37,1.67,19.27,3.75,24A34.45,34.45,0,0,0,963.09,534.58Z"/><path class="cls-1" d="M970.25,276c-23.94-6.11-42.56,10.63-47.87,15.4s-9.76,8.78-9.3,13.61c1.44,15,47.66,23.68,52.23,15.33,1.31-2.39-.38-7,2.81-9.66a5.52,5.52,0,0,1,3.9-1.33c2.82.31,4.47,3.45,5,4.4,3.84,7.28-3.24,19.39-5.86,23.76-8.16,13.64-13.31,13-15.51,20.95-2.55,9.25,1.45,20.82,9.29,27.31,13.67,11.33,37.53,5.94,43.23-6,4.73-9.9-3.23-23.91-4.59-26.3-4.77-8.41-8.6-8.24-10-14-2.58-10.81,9.68-16.23,10.52-28C1005.14,297.08,988.28,280.62,970.25,276Z"/><path class="cls-2" d="M822.32,419c4.38,1.17,13.9,16.61,13.9,16.61L827.3,451.4l-9.08.19S818,417.84,822.32,419Z"/><rect class="cls-2" x="805.82" y="403.44" width="7.42" height="30.28" rx="3.71" ry="3.71" transform="translate(1462.35 -217.32) rotate(108.41)"/><rect class="cls-4" x="804.68" y="410.09" width="11" height="57.99" rx="5.5" ry="5.5" transform="translate(-108.96 505.21) rotate(-32.57)"/><ellipse class="cls-6" cx="779.9" cy="391.7" rx="28" ry="32" transform="translate(-88.21 481.45) rotate(-32.57)"/><rect class="cls-2" x="812.78" y="432.38" width="7.42" height="34.49" rx="3.71" ry="3.71" transform="translate(1099.92 -438.34) rotate(78.86)"/><rect class="cls-2" x="808.11" y="425.85" width="7.42" height="34.49" rx="3.71" ry="3.71" transform="translate(1089.74 -439.03) rotate(78.86)"/><rect class="cls-2" x="806.68" y="418.57" width="7.42" height="34.49" rx="3.71" ry="3.71" transform="translate(1081.45 -443.49) rotate(78.86)"/><rect class="cls-2" x="805.24" y="411.29" width="7.42" height="34.49" rx="3.71" ry="3.71" transform="translate(1073.15 -447.96) rotate(78.86)"/><path class="cls-3" d="M943.28,383.21l37.19,40.42s-49.21,45-61.88,54.69-22.68,4.33-22.68,4.33L826,456.44l9.77-26.05,53.4,20c3.95,1.49,6.82.53,8.85-1.25C901.44,446.2,943.28,383.21,943.28,383.21Z"/><polygon class="cls-4" points="625.4 522.48 616.77 581.48 568.4 298.48 577.09 249.48 625.4 522.48"/><rect class="cls-4" x="342.61" y="441.77" width="11" height="57.99" rx="5.5" ry="5.5" transform="translate(146.17 -78.8) rotate(16.31)"/><ellipse class="cls-6" cx="365.8" cy="417.59" rx="32" ry="28" transform="translate(-137.7 651.43) rotate(-73.69)"/><rect class="cls-2" x="330.94" y="467.34" width="7.82" height="36.35" rx="3.91" ry="3.91" transform="translate(907.97 346.34) rotate(110.94)"/><rect class="cls-2" x="336.96" y="461.39" width="7.82" height="36.35" rx="3.91" ry="3.91" transform="translate(910.6 332.65) rotate(110.94)"/><rect class="cls-2" x="339.76" y="454.09" width="7.82" height="36.35" rx="3.91" ry="3.91" transform="translate(907.58 320.12) rotate(110.94)"/><rect class="cls-2" x="342.55" y="446.79" width="7.82" height="36.35" rx="3.91" ry="3.91" transform="translate(904.55 307.6) rotate(110.94)"/><path class="cls-4" d="M197,378l-45.13,3.56s57,84.27,66.61,87.46A95.66,95.66,0,0,0,238.93,473l82.05,9,4.51-24.3s-68.6-8.6-61.18-8.24S242,447.78,234,443.26,197,378,197,378Z"/><polygon class="cls-2" points="46.07 708.88 21.58 723.03 29.49 733.31 56.83 726.29 46.07 708.88"/><polygon class="cls-6" points="19.32 720.09 0 731.45 24.08 774.88 29.05 772.23 20.51 741.39 31.75 736.24 19.32 720.09"/><polygon class="cls-2" points="215.78 709.37 212.45 737.45 225.42 737.27 236.17 711.17 215.78 709.37"/><path class="cls-3" d="M146.3,531.54c28.78,7.71,67.86,22.77,78.21,49.21,16.91,43.21-16,142.1-16,142.1l28.34,8.34s44.51-126.73,31.49-161.53S169.83,458,169.83,458L129,506.7S143.11,530.69,146.3,531.54Z"/><path class="cls-3" d="M116,532.19c15.54,24.56,31.54,58.29,22.54,83-15.87,43.61-105.91,96.09-105.91,96.09l15.77,25s117.16-65.67,130.38-100.4-.17-148.9-.17-148.9l-60.18,9.14S104.15,513.46,116,532.19Z"/><polygon class="cls-6" points="208.74 737.51 206.28 759.78 255.48 766.49 256.33 760.92 226.52 749.3 229.12 737.22 208.74 737.51"/><path class="cls-4" d="M158.69,335.12l22.13-1.05s22.66-1.11,23.93,13.86,11.44,147.79,11.44,147.79l-117,1.66,3.73-137.88s9.39-22.19,19.8-22.68Z"/><circle class="cls-4" cx="459.9" cy="238.98" r="15.5"/><rect class="cls-8" x="335.4" y="577.48" width="18" height="179"/><rect class="cls-8" x="285.4" y="577.48" width="18" height="58"/><rect class="cls-8" x="846.4" y="577.48" width="18" height="58"/><rect class="cls-2" x="73.22" y="158.88" width="7.82" height="36.35" rx="3.91" ry="3.91" transform="translate(163.86 349.61) rotate(176.86)"/><rect class="cls-2" x="80.72" y="150.96" width="7.82" height="36.35" rx="3.91" ry="3.91" transform="translate(178.41 333.37) rotate(176.86)"/><rect class="cls-2" x="88.53" y="150.53" width="7.82" height="36.35" rx="3.91" ry="3.91" transform="translate(193.99 332.08) rotate(176.86)"/><rect class="cls-2" x="96.34" y="150.1" width="7.82" height="36.35" rx="3.91" ry="3.91" transform="translate(209.57 330.8) rotate(176.86)"/></g></g></svg>