<svg xmlns="http://www.w3.org/2000/svg" viewBox="0 0 764.79 913.9"><defs><style>.cls-1{fill:#efd0c5;}.cls-2{fill:#5e3966;}.cls-3{fill:#a166aa;}.cls-4{fill:#f05e24;}.cls-5{fill:#007455;}.cls-6{fill:#003a29;}.cls-7{fill:#00684a;}.cls-8{fill:#00ab7e;}.cls-10,.cls-9{fill:none;}.cls-9{stroke:#fff;stroke-miterlimit:10;stroke-width:8px;}</style></defs><title>predlagaj</title><g id="Layer_2" data-name="Layer 2"><g id="Layer_1-2" data-name="Layer 1"><polygon class="cls-1" points="465.52 868.15 446.77 893.98 436.16 883.89 447.24 854.02 465.52 868.15"/><polygon class="cls-2" points="451.49 891.38 440.57 913.9 390.71 904.05 391.97 897.82 428.08 897.02 432.32 879.72 451.49 891.38"/><polygon class="cls-1" points="382.93 827.96 361.09 851.25 351.82 839.91 366.55 811.66 382.93 827.96"/><polygon class="cls-2" points="367.69 849.52 350.97 869.78 305.6 850.11 308.05 844.24 343.63 850.49 351 834.21 367.69 849.52"/><path class="cls-3" d="M602.66,637.29s-97.19,54-117.85,79.7S381.9,829.51,381.9,829.51l-18.3-15.24S439,706.1,473.09,662.76,583.83,548.91,583.83,548.91l58.69,74.55Z"/><path class="cls-3" d="M670,618.78c-31.43,52.42-79.49,73.45-112.4,116.65s-94.29,136.06-94.29,136.06l-20.44-11.91s54.44-115.42,89.11-165,71.79-120.35,71.79-120.35S701.46,566.35,670,618.78Z"/><path class="cls-1" d="M575.44,313.07a37,37,0,0,0-11.73,24.49c-1.1,15.7.51,30.35,11.84,36.26s16.83,5.65,18,11.11.61,12.86.61,12.86l-.62,6.48,38.58-1.83s-1.57-13.73,0-20.25,17.69-34.89,17.56-37.65,15.54-41.23-19.93-51.53S575.44,313.07,575.44,313.07Z"/><path class="cls-4" d="M604.41,439.33l-29.21-36s-72.66,67.27-74.86,70.59-2.2,9.75.84,21.92c4.31,21.85,27.62,92.92,27.62,92.92L552,583.56,529.46,502.7s-1.9-6.2.07-10.47C534,487.31,604.41,439.33,604.41,439.33Z"/><path class="cls-4" d="M606.08,399.65l-23.42-1.1s-13,7.73-14.46,18.18S548.27,573,548.27,573l115.24,46.13,1.4-188.43S655.22,402,644.2,401.45Z"/><rect class="cls-5" x="697.44" y="695.43" width="18" height="179"/><rect class="cls-5" x="136.44" y="695.43" width="18" height="179"/><rect class="cls-5" x="86.44" y="695.43" width="18" height="58"/><rect class="cls-5" x="647.44" y="695.43" width="18" height="58"/><polygon class="cls-5" points="758.45 699.43 72.98 699.43 41.45 573.43 704.83 573.43 758.45 699.43"/><circle class="cls-3" cx="288.94" cy="80.93" r="15.5"/><path class="cls-6" d="M442.58,675.92H599.32a7.12,7.12,0,0,0,7.12-7.12V597.55a7.14,7.14,0,0,0-7.12-7.12H442.58a7.12,7.12,0,0,0-7.13,7.12V668.8A7.1,7.1,0,0,0,442.58,675.92Zm81.92-17.8h-7.12V651h7.12Zm0-14.25h-7.12v-7.12h7.12Zm0-14.25h-7.12V622.5h7.12Zm21.38,28.5h-7.13V651h7.13Zm0-14.25h-7.13v-7.12h7.13Zm0-14.25h-7.13V622.5h7.13Zm35.62-21.37h7.12v7.12H581.5Zm0,14.25h7.12v7.12H581.5Zm0,14.25h7.12v7.12H581.5Zm0,14.25h7.12v7.12H581.5Zm-21.37-42.75h7.12v7.12h-7.12Zm0,14.25h7.12v7.12h-7.12Zm0,14.25h7.12v7.12h-7.12Zm0,14.25h7.12v7.12h-7.12ZM496,608.25h49.88v7.12H496Zm0,14.25h7.13v7.12H496Zm0,14.25h7.13v7.12H496ZM496,651h7.13v7.12H496Zm-21.37-42.75h7.12v7.12h-7.12Zm0,14.25h7.12v7.12h-7.12Zm0,14.25h7.12v7.12h-7.12Zm0,14.25h7.12v7.12h-7.12Zm-21.37-42.75h7.12v7.12h-7.12Zm0,14.25h7.12v7.12h-7.12Zm0,14.25h7.12v7.12h-7.12Zm0,14.25h7.12v7.12h-7.12Z"/><path class="cls-6" d="M613.91,289.3c-6.26-9.14,1.05-17.76-4.6-23.91-6-6.57-22.91-6-31.26,3.68-7.79,9-4.32,21.57-3.68,23.9,4,14.46,17.66,20.91,22.07,23,14.32,6.76,27.71,4.05,38.62,1.84,8.46-1.71,21.41-5.67,21.15-9.19-.2-2.61-7.44-2.77-22.07-8.28C622.76,296.05,617.07,293.91,613.91,289.3Z"/><path class="cls-1" d="M569,334.88l-5.27-1a3.22,3.22,0,0,0-1.18,6.33l5.27,1Z"/><circle cx="577.83" cy="330.78" r="2.3"/><rect class="cls-1" x="583.32" y="609.03" width="8.28" height="60.61" rx="3.4" ry="3.4" transform="translate(404.6 -209.44) rotate(30.42)"/><rect class="cls-1" x="573.34" y="609.94" width="8.28" height="60.61" rx="3.4" ry="3.4" transform="translate(403.69 -204.26) rotate(30.42)"/><rect class="cls-1" x="566.2" y="605.75" width="8.28" height="60.61" rx="3.4" ry="3.4" transform="translate(400.58 -201.22) rotate(30.42)"/><rect class="cls-1" x="559.06" y="601.56" width="8.28" height="60.61" rx="3.4" ry="3.4" transform="matrix(0.86, 0.51, -0.51, 0.86, 397.48, -198.19)"/><path class="cls-1" d="M571.83,602.27c4.22-2.78,24.15.7,24.15.7l6.56,19.12L596,629.8S567.61,605.06,571.83,602.27Z"/><path class="cls-4" d="M638.56,450.08l39.65-26.87s8.54,107.36,2.73,116.31a101.63,101.63,0,0,1-14.35,16.79l-61.9,61.61-19.78-17.1s51-52.45,45.13-47.24,17.37-16.09,21-25.11S638.56,450.08,638.56,450.08Z"/><rect class="cls-1" x="557.86" y="595.74" width="8.28" height="33.78" rx="3.4" ry="3.4" transform="translate(811.13 -180.53) rotate(59.97)"/><path class="cls-7" d="M596.44,284.7c-6.26-9.14,1-17.76-4.6-23.91-6-6.57-22.91-6-31.26,3.68-7.79,9-4.32,21.57-3.68,23.91,4,14.46,17.66,20.91,22.07,23,14.31,6.76,27.71,4.05,38.62,1.84,8.46-1.71,21.41-5.67,21.15-9.19-.2-2.61-7.44-2.77-22.07-8.28C605.29,291.45,599.6,289.31,596.44,284.7Z"/><path class="cls-7" d="M597.36,305.85c-.11-2.08-.54-14.31,8.27-22.07,8.42-7.42,19.52-5.7,26.67-4.6,4.08.63,19.76,3.05,29.42,16.55,8.87,12.38,7,26.22,5.52,37.7-1,7.33-3.08,23.26-15.63,35.86-7.72,7.75-20.81,15.66-25.75,12-5.64-4.24-2.2-24.83.92-34a21.08,21.08,0,0,0,.92-10.11c-.21-1.34-1.22-7.56-4.6-8.28-2.87-.61-6,3.09-7.35,5.52-2.5,4.51-2,10.35-1.84,12,.27,3.07.93,4.57,0,5.51-1.71,1.73-6.63-.58-7.36-.92C596.63,346.24,597,316.49,597.36,305.85Z"/><path class="cls-7" d="M665.4,319.64c2.14-7.62,19.76-13.95,29.43-6.44,5.73,4.46,8.5,13.65,6.43,20.23-.93,3-2.53,4.4-2.76,8.28-.19,3.32.6,8.8,3.68,10.11s5.52-3.09,12-4.6c5-1.16,11.76-.41,16.55,3.68,7,6,8,17.76,3.67,23.91-3.61,5.08-9.69,4.64-10.11,8.28s4.86,7.38,9.2,9.19c9.49,4,14.91-1.8,22.06,1.84,6.1,3.1,8.73,10.65,9.2,15.63,1.39,14.78-14.56,24.53-16.55,25.75-8.68,5.3-23.6,9.34-32.19,2.76-5-3.87-3.5-8-12.87-20.23-5.93-7.74-8.73-8.92-11-9.2-5.81-.7-12.66,3.86-12.88,8.28-.25,5.17,8.77,6.18,11,13.79,2,6.63-2.14,15.07-7.36,18.39-10.29,6.54-30.11-2.86-37.7-16.55-9-16.2-.87-38.46,8.28-50.57,6.37-8.44,11.32-9.39,15.63-19.31,1.32-3.05,6.43-14.8,2.76-27.59C669.16,326,664.14,324.14,665.4,319.64Z"/><path class="cls-8" d="M676.53,321.75c2-8.68,1.25-10.71.92-11.49-1.72-3.95-6.36-7.41-10-6.54-4.27,1-5.57,7.59-7.25,16.13-1.49,7.56-2.57,13,.65,15.81,2.42,2.12,6.61,2.18,9.44.68C673.47,334.65,674.54,330.32,676.53,321.75Z"/><path class="cls-8" d="M469.57,443.43H224.12a8.26,8.26,0,0,0-8.26,8.25V625.57a8.26,8.26,0,0,0,8.26,8.25H469.57a8.26,8.26,0,0,0,8.26-8.25V451.68A8.26,8.26,0,0,0,469.57,443.43ZM384.81,655h-1.57l-.8-.1c-8.65-.85-12.94-14.52-15.08-23H320.82c-2.14,8.48-6.43,22.15-15.08,23l-.79.1h-1.58a7.34,7.34,0,0,0,0,14.68H384.8a7.34,7.34,0,1,0,0-14.68Z"/><path class="cls-9" d="M319.94,442.93v-89s5-34-34-34h-83s-27.5,5-27.5-27.5v-42"/><polygon class="cls-10" points="229.72 222.84 229.04 222.82 228.96 222.69 228.33 222.56 229.65 226.06 231.49 223.19 229.72 222.84"/><polygon class="cls-10" points="250.8 192.95 242.52 195.7 248.31 196.84 250.8 192.95"/><path class="cls-10" d="M346,100.77A106,106,0,0,0,150.63,51.83,59.83,59.83,0,0,0,111,50.77c12.21,3.62,21.08,11.57,24.46,14.61,5.35,4.81,9.61,8.64,9.15,13.4-.27,2.8-2.12,5.38-5,7.66a32.71,32.71,0,0,1,3.66,16.81l-.06.81,3.78.66a2.84,2.84,0,1,1-1,5.59l-3.32-.57c-1.35,11.17-4.88,20.66-13.76,24-10.56,3.94-15.36,3.11-17,7.77a43.24,43.24,0,0,0-1.82,9.66,23.49,23.49,0,0,1,2.12,1.24c1.89,1.24,3.51,3.62,4.89,6.76,8.69,13,39.37,59,42.23,61.49,2,1.75,4.82,2.69,8.71,1.23l52.56-19.72,1.07,2.85c2.39-3.65,7.16-10.59,10.54-13.13a2.23,2.23,0,0,1,1.11-.81l19-6.33c-7.11-9.4-7.46-23.69.08-35.49,9.36-14.66,27.35-19.9,40.17-11.71s15.64,26.72,6.27,41.38c-8.22,12.88-23.1,18.48-35.3,14.1l-3.89,6.09,2.5.49a2.28,2.28,0,0,1,1.79,2.67l-.53,2.71a2.28,2.28,0,0,1-2.67,1.79,2.27,2.27,0,0,1,1.79,2.66l-.53,2.71a2.28,2.28,0,0,1-2.67,1.79,2.27,2.27,0,0,1,1.79,2.66l-.53,2.71a2.28,2.28,0,0,1-2.67,1.79l-2.56-.5a2.27,2.27,0,0,1,1.16,2.43l-.53,2.71a2.28,2.28,0,0,1-2.67,1.79l-10.49-2.07-6,9.4a3.37,3.37,0,0,1-4.65,1l-3.45-2.21a3.37,3.37,0,0,1-1-4.64l.23-.37-54.08,20.3H338.38A74.35,74.35,0,0,0,346,100.77Z"/><path class="cls-10" d="M108.41,248.93h30.28c-5.56-4.34-17.15-14.5-28.71-24.81C109.63,229.69,109,239.29,108.41,248.93Z"/><path class="cls-10" d="M30,196.11c7.19-27.48,13.36-38.54,21.16-43.62,0,0,0-.08-.07-.13-4.65-9.74,3.18-23.53,4.52-25.88,4.7-8.27,8.47-8.11,9.83-13.8,1-4.21-.27-7.58-2.24-10.84A74.31,74.31,0,0,0,26.57,227.92,111.56,111.56,0,0,1,30,196.11Z"/><path class="cls-1" d="M93.21,93.86c-1.29-2.35.37-6.86-2.76-9.5a5.44,5.44,0,0,0-3.85-1.31c-2.77.31-4.4,3.39-4.9,4.33-3.78,7.17,3.19,19.08,5.77,23.38,8,13.43,13.1,12.78,15.26,20.62a25.44,25.44,0,0,1-1.53,16.51,36.32,36.32,0,0,1,9,3.25,43.24,43.24,0,0,1,1.82-9.66c1.63-4.66,6.43-3.83,17-7.77,8.88-3.31,12.41-12.8,13.76-24l-1.35-.23,1-5.6.88.15.06-.81a32.71,32.71,0,0,0-3.66-16.81C127.42,96.18,96.85,100.52,93.21,93.86Zm33.63,4.49a2,2,0,1,1,1.66,2.34A2,2,0,0,1,126.84,98.35Z"/><path class="cls-1" d="M146.05,110.31a2.84,2.84,0,1,0,1-5.59l-3.78-.66c-.11,1.93-.28,3.83-.5,5.68Z"/><path class="cls-1" d="M141.38,109.51l1.35.23c.22-1.85.39-3.75.5-5.68l-.88-.15Z"/><path d="M128.5,100.69a2,2,0,1,0-1.66-2.34A2,2,0,0,0,128.5,100.69Z"/><path class="cls-8" d="M96,156l13.92,2.4.17-5.73s0-.59.11-1.53a36.32,36.32,0,0,0-9-3.25A28.44,28.44,0,0,1,96,156Z"/><path class="cls-2" d="M135.46,65.38c-3.38-3-12.25-11-24.46-14.61a60,60,0,0,0-41.4,50c-.74.09-1.46.21-2.19.32-1.44.21-2.85.46-4.26.75,2,3.26,3.25,6.63,2.24,10.84-1.36,5.69-5.13,5.53-9.83,13.8-1.34,2.35-9.17,16.14-4.52,25.88,0,0,.05.09.07.13,5.73,11.66,29.08,16.88,42.48,5.77A24.08,24.08,0,0,0,96,156a28.44,28.44,0,0,0,5.24-8.11,25.44,25.44,0,0,0,1.53-16.51c-2.16-7.84-7.23-7.19-15.26-20.62-2.58-4.3-9.55-16.21-5.77-23.38.5-.94,2.13-4,4.9-4.33a5.44,5.44,0,0,1,3.85,1.31c3.13,2.64,1.47,7.15,2.76,9.5,3.64,6.66,34.21,2.32,46.42-7.42,2.86-2.28,4.71-4.86,5-7.66C145.07,74,140.81,70.19,135.46,65.38Z"/><path class="cls-1" d="M226,214.65l2.57.51a2.28,2.28,0,0,1-1.17-2.43l.54-2.71a2.27,2.27,0,0,1,2.66-1.79,2.28,2.28,0,0,1-1.79-2.67l.54-2.71a2.28,2.28,0,0,1,2.66-1.79,2.28,2.28,0,0,1-1.79-2.66l.54-2.71a2.23,2.23,0,0,1,1.29-1.62l-.05-.15a2.27,2.27,0,0,1,.33-2.06c-3.38,2.54-8.15,9.48-10.54,13.13l3.61,9.64A2,2,0,0,1,226,214.65Z"/><polygon class="cls-1" points="229.04 222.82 229.72 222.84 228.96 222.69 229.04 222.82"/><path class="cls-1" d="M236.16,194.45l6.36,1.25L250.8,193l3.69-5.78a23.22,23.22,0,0,1-2.1-2.45l-19,6.33a2.23,2.23,0,0,0-1.11.81,5,5,0,0,1,1.65-.91C234.88,190.7,235.6,192.1,236.16,194.45Z"/><path class="cls-1" d="M232,193.92l.05.15a2.28,2.28,0,0,1,1.37-.17l2.79.55c-.56-2.35-1.28-3.75-2.23-3.5a5,5,0,0,0-1.65.91A2.27,2.27,0,0,0,232,193.92Z"/><path class="cls-3" d="M258.44,190.41,250.8,193l-2.49,3.89,11.41,2.25,3.89-6.09a25,25,0,0,1-4.88-2.39Z"/><path class="cls-3" d="M229.65,226.07l.64,1.71-2.29.85-.23.37a3.37,3.37,0,0,0,1,4.64l3.45,2.21a3.37,3.37,0,0,0,4.65-1l6-9.4-11.41-2.25Z"/><path class="cls-3" d="M254.49,187.17,250.8,193l7.64-2.54A24.45,24.45,0,0,1,254.49,187.17Z"/><path class="cls-4" d="M260.23,184.51l.63,1.89,2.11,1.35a3.39,3.39,0,0,1,1,4.65l-.39.6c12.2,4.38,27.08-1.22,35.3-14.1,9.37-14.66,6.56-33.18-6.27-41.38s-30.81-3-40.17,11.71c-7.54,11.8-7.19,26.09-.08,35.49l5-1.65A2.28,2.28,0,0,1,260.23,184.51Z"/><path class="cls-4" d="M254.49,187.17l.39-.6a3.36,3.36,0,0,1,4.64-1l1.34.85-.63-1.89a2.28,2.28,0,0,0-2.87-1.44l-5,1.65A23.22,23.22,0,0,0,254.49,187.17Z"/><path class="cls-4" d="M263,187.75l-2.11-1.35.24.73a2.28,2.28,0,0,1-1.44,2.87l-1.22.41.29.2a25,25,0,0,0,4.88,2.39l.39-.6A3.39,3.39,0,0,0,263,187.75Z"/><path class="cls-4" d="M259.66,190a2.28,2.28,0,0,0,1.44-2.87l-.24-.73-1.34-.85a3.36,3.36,0,0,0-4.64,1l-.39.6a24.45,24.45,0,0,0,3.95,3.24Z"/><polygon class="cls-1" points="231.49 223.19 231.68 222.88 229.72 222.84 231.49 223.19"/><path class="cls-1" d="M242.9,225.43l10.49,2.07a2.28,2.28,0,0,0,2.67-1.79l.53-2.71a2.27,2.27,0,0,0-1.16-2.43l-8.37-1.65Z"/><polygon class="cls-1" points="227.23 219.64 228.33 222.56 228.96 222.69 227.23 219.64"/><path class="cls-1" d="M229,222.69l.76.15,2,0,4-6.21-6.51-1.28a2.09,2.09,0,0,1-.62-.23l-2.57-.51a2,2,0,0,0-.6,0l1.88,5Z"/><path class="cls-1" d="M237.94,217.12c.05,3.48,0,5.88,0,5.88l-6.29-.12-.19.3,11.41,2.25,4.16-6.51Z"/><path class="cls-1" d="M231.68,222.88,238,223s0-2.4,0-5.88l-2.29-.45Z"/><path class="cls-1" d="M237.72,209.64c.06,1.23.1,2.43.13,3.58l2-3.16Z"/><path class="cls-1" d="M247.12,218.82l7.68,1.51a2.17,2.17,0,0,1,.63.24l2.56.5a2.28,2.28,0,0,0,2.67-1.79l.53-2.71a2.27,2.27,0,0,0-1.79-2.66l-8.12-1.6Z"/><path class="cls-1" d="M237.85,213.22c0-1.15-.07-2.35-.13-3.58l-7.17-1.41a2.27,2.27,0,0,0-2.66,1.79l-.54,2.71a2.28,2.28,0,0,0,1.17,2.43l7.19,1.41Z"/><path class="cls-1" d="M237.85,213.22c0,1.35.07,2.63.08,3.79l9.19,1.81,4.16-6.51-11.41-2.25Z"/><path class="cls-1" d="M237.85,213.22l-2.14,3.35,2.22.44C237.92,215.85,237.89,214.57,237.85,213.22Z"/><path class="cls-1" d="M247.12,218.82l-.06.1,8.37,1.65a2.17,2.17,0,0,0-.63-.24Z"/><path class="cls-1" d="M235.65,216.67l.06-.1-7.19-1.41a2.09,2.09,0,0,0,.62.23Z"/><path class="cls-1" d="M237.94,217.12l9.12,1.8.06-.1L237.93,217A.45.45,0,0,1,237.94,217.12Z"/><path class="cls-1" d="M235.71,216.57l-.06.1,2.29.45a.45.45,0,0,0,0-.11Z"/><path class="cls-1" d="M251.28,212.31l8.12,1.6a2.28,2.28,0,0,0,2.67-1.79l.53-2.71a2.27,2.27,0,0,0-1.79-2.66l-5.31-1.05Z"/><path class="cls-1" d="M237.72,209.64l2.15.42,4.22-6.61-6.84-1.34C237.46,204.54,237.62,207.13,237.72,209.64Z"/><path class="cls-1" d="M237.25,202.11,232,201.06a2.28,2.28,0,0,0-2.66,1.79l-.54,2.71a2.28,2.28,0,0,0,1.79,2.67l7.17,1.41C237.62,207.13,237.46,204.54,237.25,202.11Z"/><polygon class="cls-1" points="251.28 212.31 255.5 205.7 244.09 203.45 239.87 210.06 251.28 212.31"/><path class="cls-1" d="M260.81,206.75a2.28,2.28,0,0,0,2.67-1.79l.53-2.71a2.28,2.28,0,0,0-1.79-2.67l-2.5-.49-4.22,6.61Z"/><path class="cls-1" d="M237.25,202.11l6.84,1.34,4.22-6.61-5.79-1.14-5.78,1.93C236.94,199,237.11,200.52,237.25,202.11Z"/><path class="cls-1" d="M236.74,197.63l-1.05.35a2.29,2.29,0,0,1-2.87-1.44l-.82-2.47a2.23,2.23,0,0,0-1.29,1.62l-.54,2.71a2.28,2.28,0,0,0,1.79,2.66l5.29,1.05C237.11,200.52,236.94,199,236.74,197.63Z"/><path class="cls-1" d="M242.52,195.7l-6.36-1.25c.22.93.41,2,.58,3.18Z"/><path class="cls-1" d="M235.69,198l1.05-.35c-.17-1.18-.36-2.25-.58-3.18l-2.79-.55a2.28,2.28,0,0,0-1.37.17l.82,2.47A2.29,2.29,0,0,0,235.69,198Z"/><polygon class="cls-1" points="244.09 203.45 255.5 205.7 259.72 199.09 248.31 196.84 244.09 203.45"/><path class="cls-8" d="M228.33,222.56l-3.79-.74a2.28,2.28,0,0,1-1.79-2.67l.54-2.71a2.25,2.25,0,0,1,1.24-1.59l-4.27-7.54s.56-.92,1.48-2.32l-1.07-2.85-52.56,19.72c-3.89,1.46-6.71.52-8.71-1.23-2.86-2.51-33.54-48.45-42.23-61.49-1.38-3.14-3-5.52-4.89-6.76a23.49,23.49,0,0,0-2.12-1.24c-.08.94-.11,1.53-.11,1.53l-.17,5.73L96,156a24.08,24.08,0,0,1-2.37,2.26c-13.4,11.11-36.75,5.89-42.48-5.77-7.8,5.08-14,16.14-21.16,43.62a111.56,111.56,0,0,0-3.38,31.81,74.18,74.18,0,0,0,50.41,21h31.43c.62-9.64,1.22-19.24,1.57-24.81,11.56,10.31,23.15,20.47,28.71,24.81h35.23L228,228.63l1.65-2.56Z"/><path class="cls-8" d="M224.53,214.85a2.08,2.08,0,0,1,.82-.22L221.74,205c-.92,1.4-1.48,2.32-1.48,2.32Z"/><polygon class="cls-8" points="229.65 226.06 228 228.63 230.29 227.78 229.65 226.06"/><path class="cls-8" d="M224.53,214.85a2.25,2.25,0,0,0-1.24,1.59l-.54,2.71a2.28,2.28,0,0,0,1.79,2.67l3.79.74-1.1-2.92Z"/><path class="cls-8" d="M225.35,214.63a2.08,2.08,0,0,0-.82.22l2.7,4.79Z"/><path class="cls-9" d="M346,102.27A106,106,0,0,0,150.63,53.33a60.13,60.13,0,0,0-81,48.94A74.35,74.35,0,0,0,77,250.43h261.4A74.35,74.35,0,0,0,346,102.27Z"/><path class="cls-2" d="M74.43,115.43l0,17.27a1.5,1.5,0,0,0,2.94.4,31.48,31.48,0,0,0,1-7.67,1.5,1.5,0,0,0-3,0,28.41,28.41,0,0,1-.91,6.87l3,.4,0-17.27a1.5,1.5,0,0,0-3,0Z"/></g></g></svg>